PathFileType	4	(X/Y/Z)	/Users/itak/Documents/Research/Walk-IL/dataset/trc/00235_00009.trc
DataRate	CameraRate	NumFrames	NumMarkers	Units	OrigDataRate	OrigDataStartFrame	OrigNumFrames
100.000000	100.000000	4	53	mm	100.000000	315	841
Frame#	Time	RPSI			LPSI			L3			STRN			T10			C7			CLAV			RBAK			LBAK			LSHO			LUPA			LAEL			LAOL			LWTS			LWPS			LFRA			LIFD			LHPS			LHTS			RSHO			RUPA			RAEL			RAOL			RWTS			RWPS			RFRA			RIFD			RHTS			RHPS			RBHD			LFHD			RFHD			LBHD			LHIP			RHIP			RASI			LASI			LKNE			LTHI			LANK			LTIP			LTOE			LMT1			LMT5			LHEE			RKNE			RTHI			RANK			RTIP			RTOE			RMT1			RMT5			RHEE			
		X1	Y1	Z1	X2	Y2	Z2	X3	Y3	Z3	X4	Y4	Z4	X5	Y5	Z5	X6	Y6	Z6	X7	Y7	Z7	X8	Y8	Z8	X9	Y9	Z9	X10	Y10	Z10	X11	Y11	Z11	X12	Y12	Z12	X13	Y13	Z13	X14	Y14	Z14	X15	Y15	Z15	X16	Y16	Z16	X17	Y17	Z17	X18	Y18	Z18	X19	Y19	Z19	X20	Y20	Z20	X21	Y21	Z21	X22	Y22	Z22	X23	Y23	Z23	X24	Y24	Z24	X25	Y25	Z25	X26	Y26	Z26	X27	Y27	Z27	X28	Y28	Z28	X29	Y29	Z29	X30	Y30	Z30	X31	Y31	Z31	X32	Y32	Z32	X33	Y33	Z33	X34	Y34	Z34	X35	Y35	Z35	X36	Y36	Z36	X37	Y37	Z37	X38	Y38	Z38	X39	Y39	Z39	X40	Y40	Z40	X41	Y41	Z41	X42	Y42	Z42	X43	Y43	Z43	X44	Y44	Z44	X45	Y45	Z45	X46	Y46	Z46	X47	Y47	Z47	X48	Y48	Z48	X49	Y49	Z49	X50	Y50	Z50	X51	Y51	Z51	X52	Y52	Z52	X53	Y53	Z53	

316	3.15	791.9561767578125	1013.838745117188	-0.05122979357838631	675.5874633789062	1020.222473144531	32.64767074584961	714.9127807617188	1097.234008789062	30.29437637329102	648.1459350585938	1282.481201171875	-213.7041625976562	717.6387939453125	1225.005493164062	29.39153289794922	693.992919921875	1486.6328125	-30.04312324523926	656.4188842773438	1399.394165039062	-188.8987274169922	782.4883422851562	1347.580322265625	28.36912155151367	592.4855346679688	1447.603393554688	16.65606880187988	516.0106201171875	1446.536743164062	-55.59924697875977	448.9684143066406	1329.387084960938	-0.6011730432510376	415.0284729003906	1122.421630859375	5.977194786071777	483.2977905273438	1107.028930664062	59.75346374511719	433.8287048339844	885.949951171875	-90.70416259765625	364.9642944335938	873.522216796875	-42.054443359375	390.5311889648438	1015.899047851562	-7.606491088867188	413.4517211914062	691.3623657226562	-89.85519409179688	359.2616271972656	785.4135131835938	-58.15494155883789	398.2675476074219	786.1400756835938	-114.3645706176758	845.3399047851562	1443.493408203125	-124.9639739990234	914.5352783203125	1378.294189453125	-120.7897109985352	959.8544311523438	1098.570068359375	-105.1703796386719	881.701904296875	1091.340942382812	-51.2391471862793	891.14697265625	880.3270263671875	-223.1461334228516	966.6039428710938	868.9243774414062	-187.4137573242188	967.1956787109375	1029.846069335938	-132.2099456787109	885.510986328125	684.828369140625	-231.7035827636719	898.864990234375	758.8458251953125	-261.9808654785156	960.4690551757812	760.9730834960938	-223.6209106445312	737.3031616210938	1648.332397460938	-98.65217590332031	572.153564453125	1677.402587890625	-252.7545776367188	665.39111328125	1677.191162109375	-289.2985229492188	597.2799072265625	1651.781616210938	-91.41128540039062	510.9546508789062	955.6237182617188	-19.57371520996094	861.8984985351562	979.6419677734375	-127.5591659545898	797.3389892578125	1021.419494628906	-205.8178558349609	525.16552734375	998.4906616210938	-131.2213745117188	590.52783203125	477.0431518554688	-14.36256790161133	546.6134643554688	618.0361328125	-25.60304832458496	662.5753173828125	47.1220817565918	200.9123687744141	616.1107788085938	270.6904602050781	94.13459777832031	728.5889892578125	35.32572555541992	-9.236364364624023	765.4638671875	36.03425216674805	62.02315521240234	650.468017578125	32.86083221435547	74.19374847412109	709.9668579101562	69.66388702392578	263.9071960449219	765.1089477539062	526.3382568359375	-305.7806396484375	832.7463989257812	775.4453125	-239.0098571777344	782.944580078125	25.71975517272949	-325.9621887207031	742.8367919921875	406.4241333007812	-333.9654235839844	619.3040771484375	51.31149673461914	-462.9496154785156	618.85986328125	44.13083267211914	-393.5945739746094	732.34619140625	27.06441116333008	-426.9553833007812	772.2179565429688	24.70688247680664	-240.5446166992188	
317	3.16	791.9449462890625	1014.696472167969	-8.946560859680176	675.8695068359375	1020.845153808594	24.78120803833008	715.314697265625	1097.692993164062	22.02496147155762	646.6536865234375	1283.496215820312	-220.7693023681641	718.5817260742188	1225.492065429688	21.45573997497559	694.9550170898438	1487.269409179688	-37.2917594909668	655.3905639648438	1400.311157226562	-195.8219299316406	783.7398681640625	1347.9560546875	19.9057445526123	593.9829711914062	1448.32080078125	10.50175189971924	516.5435180664062	1447.537231445312	-60.71146392822266	450.3854064941406	1330.341674804688	-4.429953098297119	417.0721740722656	1123.591674804688	4.184963703155518	486.8418273925781	1108.572631835938	56.11577606201172	432.5198669433594	885.1776733398438	-88.81450653076172	365.2408142089844	874.0474853515625	-37.732177734375	392.1610107421875	1016.9482421875	-6.980295181274414	411.9037170410156	690.6738891601562	-82.78498840332031	358.9714050292969	785.615966796875	-51.82784652709961	396.1967468261719	784.8738403320312	-109.1739501953125	845.171630859375	1444.031860351562	-133.8893890380859	914.315673828125	1378.754150390625	-130.5224304199219	959.4065551757812	1098.997192382812	-115.6536026000977	881.8954467773438	1091.864501953125	-60.78950881958008	889.2892456054688	880.4342651367188	-232.2887725830078	965.2498779296875	869.19189453125	-197.5068206787109	966.4193725585938	1030.253540039062	-142.6729736328125	883.7228393554688	684.7916259765625	-240.0436401367188	896.5675048828125	758.7918090820312	-270.7564697265625	958.6815185546875	761.0946655273438	-233.2141418457031	737.6981201171875	1649.003295898438	-106.0701370239258	570.797119140625	1678.572265625	-258.2328491210938	663.616455078125	1678.3173828125	-295.7951354980469	597.85546875	1652.635986328125	-97.1998291015625	510.8501892089844	955.99951171875	-26.33466339111328	860.7061157226562	980.6987915039062	-137.0050811767578	795.5016479492188	1022.36328125	-214.8364868164062	524.1262817382812	999.0639038085938	-137.7789001464844	589.693603515625	477.1974792480469	-21.26756477355957	546.2677001953125	618.352783203125	-32.09226226806641	663.1488037109375	50.07067489624023	200.1705474853516	615.9187622070312	272.3389892578125	90.13094329833984	728.3944702148438	35.2395133972168	-9.620701789855957	765.3818359375	36.87461471557617	61.32155227661133	650.7463989257812	33.12098693847656	73.95404815673828	710.7944946289062	74.18733215332031	262.4824523925781	763.2572021484375	526.4666748046875	-312.8096313476562	830.61865234375	776.3575439453125	-248.0110321044922	783.2803344726562	25.4047737121582	-326.6082763671875	741.2348022460938	406.0571899414062	-339.4368591308594	619.1401977539062	48.48617935180664	-463.8894653320312	618.9852294921875	42.6346435546875	-394.4231567382812	733.0174560546875	25.95748710632324	-427.8919372558594	772.580078125	25.27474594116211	-241.1997985839844	
318	3.17	791.8048095703125	1015.693664550781	-17.75230407714844	676.0349731445312	1021.567199707031	17.01640892028809	715.634521484375	1098.367553710938	13.83024978637695	645.045654296875	1284.658203125	-227.7644500732422	719.4512939453125	1226.184936523438	13.53751945495605	695.895751953125	1488.081787109375	-44.56613159179688	654.2744140625	1401.375610351562	-202.6923675537109	784.98876953125	1348.517822265625	11.39445400238037	595.4605712890625	1449.275756835938	4.342953205108643	517.031005859375	1448.772705078125	-65.83021545410156	451.7894592285156	1331.586547851562	-8.230921745300293	419.1194152832031	1125.056762695312	2.489497900009155	490.3829650878906	1110.38330078125	52.47735595703125	431.3150939941406	884.890625	-86.9583740234375	365.69921875	875.0135498046875	-33.48124313354492	393.9339599609375	1018.339416503906	-6.263556003570557	410.6426696777344	690.5532836914062	-75.85197448730469	358.9165344238281	786.333251953125	-45.60411834716797	394.330322265625	784.1461791992188	-104.0395202636719	844.9112548828125	1444.721557617188	-142.8947296142578	913.9917602539062	1379.373779296875	-140.3623352050781	958.8737182617188	1099.596435546875	-126.2157745361328	882.019287109375	1092.55224609375	-70.41533660888672	887.3732299804688	880.734130859375	-241.5337219238281	963.8020629882812	869.635009765625	-207.7025299072266	965.5642700195312	1030.831420898438	-153.2197265625	881.9067993164062	684.99267578125	-248.5305480957031	894.1962890625	758.91357421875	-279.615966796875	956.834228515625	761.4021606445312	-242.9045715332031	738.0752563476562	1649.813720703125	-113.5344696044922	569.413330078125	1679.886108398438	-263.6993103027344	661.8037719726562	1679.575927734375	-302.2987365722656	598.4351196289062	1653.650268554688	-102.9944152832031	510.6390686035156	956.4738159179688	-32.96242523193359	859.3828125	981.8466796875	-146.2159576416016	793.5944213867188	1023.486877441406	-223.7555084228516	523.0263671875	999.7662353515625	-144.2244567871094	588.5294799804688	477.3157958984375	-28.91412353515625	545.7772216796875	618.67431640625	-39.00371932983398	663.708251953125	53.35825347900391	199.2631072998047	615.5654296875	274.1199340820312	85.64394378662109	728.1881713867188	35.16510772705078	-10.02304649353027	765.298828125	37.81978607177734	60.53559494018555	651.0469360351562	33.43105697631836	73.64243316650391	711.62890625	79.23646545410156	260.7233276367188	761.9581298828125	526.513671875	-319.3410034179688	828.8035278320312	777.3621215820312	-256.7598571777344	783.626220703125	25.09299278259277	-327.1244201660156	740.1331787109375	405.6893615722656	-344.4793701171875	619.1610717773438	46.35064315795898	-464.7106628417969	619.233154296875	41.66564559936523	-395.1215515136719	733.7643432617188	25.3119010925293	-428.6737670898438	772.8970336914062	25.60246658325195	-241.7052917480469	
319	3.18	791.5675659179688	1016.830139160156	-26.49130249023438	676.1250610351562	1022.379638671875	9.360251426696777	715.9151611328125	1099.233276367188	5.711254119873047	643.306884765625	1285.941528320312	-234.6705169677734	720.2642211914062	1227.05712890625	5.6321702003479	696.80859375	1489.04638671875	-51.85449600219727	653.0617065429688	1402.569213867188	-209.4978942871094	786.2364501953125	1349.239990234375	2.844255208969116	596.9212646484375	1450.447509765625	-1.801584482192993	517.4833984375	1450.2255859375	-70.92909240722656	453.1764221191406	1333.108032226562	-11.98222160339355	421.1544189453125	1126.797607421875	0.8871592879295349	493.8535461425781	1112.447021484375	48.86856460571289	430.2397155761719	885.0736694335938	-85.16494750976562	366.3379821777344	876.3795776367188	-29.37756156921387	395.808837890625	1020.039733886719	-5.484001159667969	409.7179870605469	690.970458984375	-69.16461944580078	359.0996398925781	787.5176391601562	-39.5705680847168	392.7015380859375	783.9376831054688	-99.03289031982422	844.544921875	1445.533203125	-151.9758453369141	913.5515747070312	1380.12646484375	-150.306884765625	958.2658081054688	1100.34228515625	-136.8421478271484	882.0845947265625	1093.376586914062	-80.10347747802734	885.3951416015625	881.2131958007812	-250.8802795410156	962.2549438476562	870.2325439453125	-217.9991149902344	964.63525390625	1031.552612304688	-163.8390808105469	880.0301513671875	685.4202880859375	-257.2172546386719	891.7536010742188	759.2139282226562	-288.5914611816406	954.9181518554688	761.88037109375	-252.7141723632812	738.4273071289062	1650.737670898438	-121.0343170166016	568.005859375	1681.320434570312	-269.1507873535156	659.9525756835938	1680.938232421875	-308.8024597167969	599.0040283203125	1654.801879882812	-108.788688659668	510.3773498535156	957.024169921875	-39.38013458251953	857.9747924804688	983.099609375	-155.2705383300781	791.6182250976562	1024.76513671875	-232.5838928222656	521.8735961914062	1000.575073242188	-150.5261993408203	586.9600830078125	477.3732299804688	-37.3149299621582	545.079833984375	618.9707641601562	-46.345947265625	664.2610473632812	56.99069213867188	198.1526947021484	615.005615234375	276.0425415039062	80.66213989257812	727.9649047851562	35.10456085205078	-10.43484497070312	765.21533203125	38.86842727661133	59.6519889831543	651.3634033203125	33.7874641418457	73.24598693847656	712.4684448242188	84.82920837402344	258.568359375	761.1140747070312	526.4734497070312	-325.3172607421875	827.2957153320312	778.3632202148438	-265.2185974121094	783.9454345703125	24.79732894897461	-327.52783203125	739.4242553710938	405.3031311035156	-349.0517883300781	619.218505859375	44.77493667602539	-465.3422546386719	619.4901733398438	41.07417297363281	-395.6318359375	734.4453125	25.00899505615234	-429.2857055664062	773.1727905273438	25.71892738342285	-242.0658416748047	
